<?xml version="1.0" standalone="no"?>
<!DOCTYPE svg PUBLIC "-//W3C//DTD SVG 20010904//EN"
 "http://www.w3.org/TR/2001/REC-SVG-20010904/DTD/svg10.dtd">
<svg version="1.0" xmlns="http://www.w3.org/2000/svg"
 width="276.000000pt" height="198.000000pt" viewBox="0 0 276.000000 198.000000"
 preserveAspectRatio="xMidYMid meet">

<g transform="translate(0.000000,198.000000) scale(0.100000,-0.100000)"
fill="#000000" stroke="none">
<path d="M542 1521 c-177 -144 -331 -277 -346 -300 -15 -21 -38 -66 -52 -98
-31 -77 -34 -197 -4 -257 20 -41 540 -698 607 -768 20 -20 59 -47 86 -58 44
-19 64 -22 146 -18 113 5 169 27 270 108 35 29 66 48 70 43 126 -154 150 -168
277 -161 71 4 94 10 156 41 93 47 425 317 434 353 7 29 -17 70 -50 85 -33 15
-48 5 -231 -146 -180 -149 -211 -168 -279 -169 -47 -1 -50 1 -102 59 -30 33
-54 63 -54 67 0 4 120 105 268 225 532 432 538 438 588 547 88 192 -7 361
-201 360 -61 0 -79 -4 -140 -36 -74 -38 -221 -139 -242 -167 -32 -42 5 -111
60 -111 16 0 52 19 92 50 130 99 201 115 256 61 16 -16 29 -38 29 -49 0 -28
-20 -83 -42 -115 -19 -26 -745 -623 -766 -629 -15 -5 -91 97 -98 131 -12 60
32 125 153 226 149 124 173 149 173 177 0 33 -39 68 -76 68 -23 0 -62 -26
-174 -117 -83 -68 -157 -138 -176 -166 -49 -71 -74 -147 -74 -223 0 -74 13
-105 74 -178 l40 -49 -44 -39 c-75 -64 -140 -91 -210 -86 -40 3 -66 11 -81 24
-27 24 -572 702 -588 731 -25 48 -6 140 41 198 17 19 150 133 296 252 147 119
284 232 305 251 45 43 49 81 12 117 -50 51 -57 47 -403 -234z"/>
<path d="M1113 1740 c-34 -20 -53 -48 -53 -77 0 -10 92 -134 205 -275 231
-291 227 -288 296 -219 22 21 39 46 39 54 0 14 -130 183 -364 475 -54 68 -71
74 -123 42z"/>
</g>
</svg>
